# xmcd
#
# Track frame offsets:
#   150
#   9211
#   22109
#   37326
#   56220
#   67305
#   79085
#   92607
#   106957
#   125075
#   138972
#   152378
#   164766
#   177033
#   192819
#   204472
#
# Disc length: 2885 seconds
#
# Revision: 0
# Processed by: cddbd v1.5.2PL0 Copyright (c) Steve Scherf et al.
# Submitted via: GXTranscoder 2.0.1939
#
DISCID=dd0b4310
DTITLE=Bayerische Märsche - Blasmusik aus Bayern
DYEAR=1900
DGENRE=Country
TTITLE0=Bayerischer Defiliermarsch
TTITLE1=Schützenbrüder
TTITLE2=die Regimentskinder
TTITLE3=Böhmischer Traum
TTITLE4=Schneidig vor
TTITLE5=Kemter Jägermarsch
TTITLE6=König Ludwig II Marsch
TTITLE7=Graf Zepelin Marsch
TTITLE8=Die Sonne geht auf
TTITLE9=Spielt für uns
TTITLE10=Am Würmsee
TTITLE11=Fliegermarsch
TTITLE12=Castaldo-Marsch
TTITLE13=Werdenfelser Ländler
TTITLE14=Tölzer Schützen Marsch
TTITLE15=Weiss Blau Marsch
EXTD=
EXTT0=
EXTT1=
EXTT2=
EXTT3=
EXTT4=
EXTT5=
EXTT6=
EXTT7=
EXTT8=
EXTT9=
EXTT10=
EXTT11=
EXTT12=
EXTT13=
EXTT14=
EXTT15=
PLAYORDER=
